# xmcd
#
# Track frame offsets: 
#        150
#        14781
#        32701
#        45312
#        62762
#        74869
#        90452
#        106879
#        123612
#        140968
#        155740
#        174375
#        185095
#
# Disc length: 2780 seconds
#
# Revision: 2
# Processed by: cddbd v1.5.2PL0 Copyright (c) Steve Scherf et al.
# Submitted via: ExactAudioCopy v1.3
#
DISCID=c40ada0d
DTITLE=Steve Wariner - This Real Life
DYEAR=2005
DGENRE=Country
TTITLE0=Quick As I Can Make It
TTITLE1=A Little Daylight (Lovin' You)
TTITLE2=That's Just What Happened To Me
TTITLE3=Real Tough Job
TTITLE4=Honky Tonk Work Of Art
TTITLE5=Right Then Right There
TTITLE6=She Thinks I Am
TTITLE7=Hoedown In Motown
TTITLE8=My Old Friend
TTITLE9=When I Think Of You
TTITLE10=This Real Life
TTITLE11=Reeding Out Loud (Instrumental)
TTITLE12=Holes In The Floor Of Heaven
EXTD=www.stevewariner.com
EXTT0=
EXTT1=
EXTT2=
EXTT3=
EXTT4=
EXTT5=
EXTT6=
EXTT7=
EXTT8=
EXTT9=
EXTT10=
EXTT11=
EXTT12=
PLAYORDER=
